<?xml version="1.0" encoding="UTF-8"?>
<svg id="Layer_2" data-name="Layer 2" xmlns="http://www.w3.org/2000/svg" viewBox="0 0 1542.22 1542.22">
  <defs>
    <style>
      .cls-1 {
        fill: none;
      }

      .cls-2 {
        fill: blue;
      }

      .cls-3 {
        fill: #fff;
      }
    </style>
  </defs>
  <g id="Layer_1-2" data-name="Layer 1">
    <g>
      <rect class="cls-3" width="1542.22" height="1542.22"/>
      <g>
        <g>
          <path d="m565.03,713.53c3.52-6,8.29-10.68,14.33-14.05,6.03-3.37,12.64-5.05,19.82-5.05,8.22,0,15.53,2.02,21.93,6.05,6.4,4.04,11.05,9.76,13.94,17.16h-15.21c-2-4.07-4.77-7.11-8.33-9.1-3.55-2-7.66-3-12.33-3-5.11,0-9.66,1.15-13.66,3.44-4,2.29-7.13,5.59-9.38,9.88-2.26,4.29-3.39,9.29-3.39,14.99s1.13,10.7,3.39,14.99c2.26,4.29,5.39,7.61,9.38,9.94,4,2.33,8.55,3.5,13.66,3.5,4.66,0,8.77-1,12.33-3,3.55-2,6.33-5.03,8.33-9.11h15.21c-2.89,7.4-7.53,13.1-13.94,17.1-6.4,4-13.71,6-21.93,6-7.26,0-13.88-1.68-19.88-5.05-6-3.37-10.75-8.05-14.27-14.05-3.52-6-5.28-12.77-5.28-20.32s1.76-14.33,5.28-20.32Z"/>
          <path d="m660.7,769.66c-4.66-2.63-8.33-6.33-10.99-11.1-2.67-4.78-4-10.31-4-16.6s1.37-11.73,4.11-16.55c2.74-4.81,6.48-8.51,11.22-11.1,4.74-2.59,10.03-3.89,15.88-3.89s11.14,1.3,15.88,3.89c4.74,2.59,8.48,6.29,11.22,11.1,2.74,4.81,4.11,10.32,4.11,16.55s-1.41,11.73-4.22,16.55c-2.81,4.81-6.64,8.53-11.49,11.16-4.85,2.63-10.2,3.94-16.05,3.94s-10.99-1.31-15.66-3.94Zm24.82-9.38c2.85-1.55,5.16-3.89,6.94-6.99,1.78-3.11,2.67-6.89,2.67-11.33s-.85-8.2-2.55-11.27c-1.7-3.07-3.96-5.39-6.77-6.94-2.81-1.56-5.85-2.33-9.11-2.33s-6.27.78-9.05,2.33c-2.78,1.55-4.98,3.87-6.61,6.94-1.63,3.07-2.44,6.83-2.44,11.27,0,6.59,1.68,11.68,5.05,15.27,3.37,3.59,7.61,5.38,12.71,5.38,3.26,0,6.31-.78,9.16-2.33Z"/>
          <path d="m720.27,725.41c2.55-4.74,6.03-8.42,10.44-11.05,4.4-2.63,9.31-3.94,14.71-3.94,4,0,7.94.87,11.83,2.61,3.89,1.74,6.98,4.05,9.27,6.94v-29.54h12.77v82.17h-12.77v-9.22c-2.07,2.96-4.94,5.41-8.61,7.33-3.66,1.93-7.87,2.89-12.6,2.89-5.33,0-10.2-1.35-14.6-4.05-4.4-2.7-7.88-6.48-10.44-11.33-2.55-4.85-3.83-10.34-3.83-16.49s1.28-11.59,3.83-16.32Zm43.64,5.55c-1.74-3.11-4.02-5.48-6.83-7.11-2.81-1.63-5.85-2.44-9.11-2.44s-6.29.8-9.1,2.39c-2.82,1.59-5.09,3.92-6.83,6.99-1.74,3.07-2.61,6.72-2.61,10.94s.87,7.92,2.61,11.1,4.04,5.61,6.89,7.27c2.85,1.67,5.87,2.5,9.05,2.5s6.29-.81,9.11-2.44c2.81-1.63,5.09-4.02,6.83-7.16,1.74-3.15,2.61-6.83,2.61-11.05s-.87-7.88-2.61-10.99Z"/>
          <path d="m851.58,746.73h-46.75c.37,4.89,2.18,8.81,5.44,11.77,3.26,2.96,7.25,4.44,11.99,4.44,6.81,0,11.62-2.85,14.44-8.55h13.66c-1.85,5.63-5.2,10.24-10.05,13.83-4.85,3.59-10.86,5.39-18.05,5.39-5.85,0-11.09-1.31-15.71-3.94-4.63-2.63-8.26-6.33-10.88-11.1-2.63-4.78-3.94-10.31-3.94-16.6s1.28-11.83,3.83-16.6c2.55-4.78,6.14-8.46,10.77-11.05,4.63-2.59,9.94-3.89,15.94-3.89s10.92,1.26,15.44,3.78c4.52,2.52,8.03,6.05,10.55,10.6,2.52,4.55,3.77,9.79,3.77,15.71,0,2.29-.15,4.37-.44,6.22Zm-12.77-10.22c-.07-4.66-1.74-8.4-5-11.21-3.26-2.81-7.29-4.22-12.1-4.22-4.37,0-8.11,1.39-11.22,4.16-3.11,2.78-4.96,6.54-5.55,11.27h33.87Z"/>
        </g>
        <g>
          <path d="m567.16,798.23c2.64-4.51,6.23-8.03,10.77-10.56,4.54-2.53,9.5-3.8,14.9-3.8,6.18,0,11.67,1.52,16.49,4.55,4.81,3.03,8.31,7.33,10.48,12.9h-11.44c-1.5-3.06-3.59-5.34-6.26-6.85-2.67-1.5-5.76-2.25-9.27-2.25-3.84,0-7.26.86-10.27,2.59-3.01,1.73-5.36,4.2-7.05,7.43-1.7,3.23-2.55,6.99-2.55,11.27s.85,8.04,2.55,11.27c1.7,3.23,4.05,5.72,7.05,7.47,3.01,1.75,6.43,2.63,10.27,2.63,3.51,0,6.6-.75,9.27-2.25,2.67-1.5,4.76-3.78,6.26-6.85h11.44c-2.17,5.57-5.66,9.85-10.48,12.86-4.81,3.01-10.31,4.51-16.49,4.51-5.45,0-10.44-1.27-14.94-3.8-4.51-2.53-8.08-6.05-10.73-10.56-2.64-4.51-3.97-9.6-3.97-15.28s1.32-10.77,3.97-15.28Z"/>
          <path d="m639.08,840.43c-3.51-1.97-6.26-4.76-8.26-8.35-2-3.59-3.01-7.75-3.01-12.48s1.03-8.82,3.09-12.44c2.06-3.62,4.87-6.4,8.43-8.35,3.56-1.95,7.54-2.92,11.94-2.92s8.38.97,11.94,2.92c3.56,1.95,6.37,4.73,8.43,8.35,2.06,3.62,3.09,7.76,3.09,12.44s-1.06,8.82-3.17,12.44c-2.12,3.62-5,6.42-8.64,8.39-3.65,1.98-7.67,2.96-12.06,2.96s-8.26-.99-11.77-2.96Zm18.66-7.06c2.14-1.17,3.88-2.92,5.22-5.26,1.34-2.34,2-5.18,2-8.52s-.64-6.16-1.92-8.47c-1.28-2.31-2.98-4.05-5.09-5.22-2.12-1.17-4.4-1.75-6.85-1.75s-4.72.58-6.8,1.75c-2.09,1.17-3.74,2.91-4.97,5.22-1.23,2.31-1.84,5.13-1.84,8.47,0,4.95,1.27,8.78,3.8,11.48,2.53,2.7,5.72,4.05,9.56,4.05,2.45,0,4.74-.58,6.89-1.75Z"/>
          <path d="m703.45,804.41h-8.52v38.24h-9.6v-38.24h-5.43v-7.76h5.43v-3.26c0-5.29,1.41-9.14,4.22-11.56,2.81-2.42,7.22-3.63,13.23-3.63v7.93c-2.89,0-4.92.54-6.09,1.63-1.17,1.09-1.75,2.96-1.75,5.64v3.26h8.52v7.76Z"/>
          <path d="m731.16,804.41h-8.52v38.24h-9.6v-38.24h-5.43v-7.76h5.43v-3.26c0-5.29,1.41-9.14,4.22-11.56,2.81-2.42,7.22-3.63,13.23-3.63v7.93c-2.89,0-4.93.54-6.09,1.63s-1.75,2.96-1.75,5.64v3.26h8.52v7.76Z"/>
          <path d="m781.42,823.19h-35.15c.28,3.67,1.64,6.62,4.09,8.85,2.45,2.23,5.45,3.34,9.02,3.34,5.12,0,8.74-2.14,10.85-6.43h10.27c-1.39,4.23-3.91,7.69-7.55,10.39-3.65,2.7-8.17,4.05-13.57,4.05-4.4,0-8.34-.99-11.81-2.96-3.48-1.97-6.21-4.76-8.18-8.35-1.98-3.59-2.96-7.75-2.96-12.48s.96-8.89,2.88-12.48c1.92-3.59,4.62-6.36,8.1-8.31,3.48-1.95,7.47-2.92,11.98-2.92s8.21.95,11.6,2.84c3.39,1.89,6.04,4.55,7.93,7.97,1.89,3.42,2.84,7.36,2.84,11.81,0,1.73-.11,3.28-.33,4.67Zm-9.6-7.68c-.06-3.51-1.31-6.32-3.76-8.43-2.45-2.12-5.48-3.17-9.1-3.17-3.28,0-6.09,1.04-8.43,3.13-2.34,2.09-3.73,4.91-4.17,8.47h25.46Z"/>
          <path d="m832.93,823.19h-35.15c.28,3.67,1.64,6.62,4.09,8.85,2.45,2.23,5.45,3.34,9.02,3.34,5.12,0,8.74-2.14,10.85-6.43h10.27c-1.39,4.23-3.91,7.69-7.55,10.39-3.65,2.7-8.17,4.05-13.57,4.05-4.4,0-8.34-.99-11.81-2.96-3.48-1.97-6.21-4.76-8.18-8.35-1.98-3.59-2.96-7.75-2.96-12.48s.96-8.89,2.88-12.48c1.92-3.59,4.62-6.36,8.1-8.31,3.48-1.95,7.47-2.92,11.98-2.92s8.21.95,11.6,2.84c3.39,1.89,6.04,4.55,7.93,7.97s2.84,7.36,2.84,11.81c0,1.73-.11,3.28-.33,4.67Zm-9.6-7.68c-.06-3.51-1.31-6.32-3.76-8.43-2.45-2.12-5.48-3.17-9.1-3.17-3.28,0-6.09,1.04-8.43,3.13-2.34,2.09-3.73,4.91-4.17,8.47h25.46Z"/>
        </g>
        <g>
          <path class="cls-1" d="m946.06,817.03l.03.03.56-.54c.4-.69.45-.9-.59.51Z"/>
          <path class="cls-2" d="m946.24,817.19c.15-.25.3-.48.41-.68l-.56.54-.03-.03c1.04-1.41.99-1.2.59-.51l35.81-34.36h-18.93l-36.39,34.51h-.4l.2.19-.19.18.22.24h.41l35.9,34.44s.03.06.05.08h18.91l.23-.24-36.23-34.36Z"/>
        </g>
        <path d="m916.34,825.94c-2.77,2.25-5.62,4.09-8.53,5.53-5.9,2.92-12.59,4.38-20.07,4.38-6.22,0-11.74-1.27-16.56-3.81-4.82-2.54-8.59-5.99-11.32-10.37-2.73-4.38-4.09-9.35-4.09-14.94,0-14.84,8.82-25.5,26.45-31.97l17.73,17.97,17.8,17.8,6.19-10.71-35.64-36.1c-4.82-5.2-8.34-9.7-10.56-13.51-2.22-3.8-3.33-7.74-3.33-11.8,0-5.07,1.81-9.23,5.43-12.47,3.61-3.23,8.34-4.85,14.18-4.85,5.45,0,9.99,1.65,13.6,4.95,3.62,3.3,5.36,7.8,5.23,13.51h13.32c.38-8.75-2.41-15.86-8.37-21.31-5.97-5.45-13.7-8.18-23.22-8.18-10.15,0-18.27,2.63-24.36,7.9-6.09,5.27-9.13,12.15-9.13,20.64,0,4.95,1.01,9.55,3.04,13.8,2.03,4.25,5.26,8.85,9.71,13.8-10.28,3.93-18.08,9.39-23.41,16.36-5.33,6.98-7.99,15.16-7.99,24.55,0,7.99,1.9,15.03,5.71,21.12,3.8,6.09,9.13,10.82,15.98,14.18,6.85,3.36,14.72,5.04,23.6,5.04s17.57-1.68,24.93-5.04c4.27-1.95,8.4-4.56,12.37-7.78l-4.74-4.74-3.95-3.95Z"/>
      </g>
    </g>
  </g>
</svg>