<?xml version="1.0" encoding="UTF-8"?>
<svg id="Layer_2" data-name="Layer 2" xmlns="http://www.w3.org/2000/svg" viewBox="0 0 910.42 347.54">
  <defs>
    <style>
      .cls-1 {
        fill: none;
      }

      .cls-2 {
        fill: blue;
      }
    </style>
  </defs>
  <g id="Layer_1-2" data-name="Layer 1">
    <g>
      <g>
        <path d="m11.36,49.75c7.57-12.91,17.86-23,30.85-30.25,12.99-7.25,27.22-10.88,42.69-10.88,17.7,0,33.44,4.34,47.24,13.03,13.79,8.7,23.8,21.01,30.02,36.95h-32.77c-4.3-8.77-10.28-15.31-17.94-19.61-7.65-4.31-16.5-6.46-26.55-6.46-11,0-20.81,2.47-29.42,7.41-8.61,4.94-15.35,12.04-20.21,21.29-4.87,9.25-7.3,20.01-7.3,32.29s2.43,23.04,7.3,32.29c4.86,9.25,11.6,16.38,20.21,21.41,8.61,5.02,18.42,7.53,29.42,7.53,10.05,0,18.89-2.15,26.55-6.46,7.65-4.31,13.63-10.84,17.94-19.61h32.77c-6.22,15.94-16.23,28.22-30.02,36.83-13.79,8.61-29.54,12.91-47.24,12.91-15.63,0-29.9-3.62-42.81-10.88-12.91-7.25-23.16-17.34-30.73-30.25C3.79,124.37,0,109.78,0,93.51s3.79-30.85,11.36-43.77Z"/>
        <path d="m217.4,170.65c-10.05-5.66-17.94-13.63-23.68-23.92-5.74-10.29-8.61-22.2-8.61-35.76s2.95-25.27,8.85-35.63c5.9-10.36,13.95-18.34,24.16-23.92,10.2-5.58,21.6-8.37,34.2-8.37s24,2.79,34.2,8.37c10.2,5.58,18.25,13.55,24.16,23.92,5.89,10.36,8.85,22.24,8.85,35.63s-3.03,25.27-9.09,35.63c-6.06,10.37-14.31,18.38-24.75,24.04-10.44,5.66-21.97,8.49-34.56,8.49s-23.68-2.83-33.72-8.49Zm53.45-20.21c6.14-3.35,11.12-8.37,14.95-15.06,3.83-6.7,5.74-14.83,5.74-24.4s-1.84-17.66-5.5-24.27c-3.67-6.61-8.53-11.6-14.59-14.95-6.06-3.35-12.6-5.02-19.61-5.02s-13.51,1.67-19.49,5.02c-5.98,3.35-10.73,8.33-14.23,14.95-3.51,6.62-5.26,14.71-5.26,24.27,0,14.19,3.62,25.15,10.88,32.89,7.25,7.74,16.38,11.6,27.38,11.6,7.01,0,13.59-1.67,19.73-5.02Z"/>
        <path d="m345.71,75.34c5.5-10.2,13-18.14,22.48-23.8,9.49-5.66,20.05-8.49,31.69-8.49,8.61,0,17.1,1.88,25.47,5.62,8.37,3.75,15.03,8.73,19.97,14.95V0h27.51v176.98h-27.51v-19.85c-4.46,6.38-10.64,11.64-18.54,15.78-7.89,4.15-16.94,6.22-27.14,6.22-11.48,0-21.96-2.91-31.45-8.73-9.49-5.82-16.98-13.95-22.48-24.4-5.5-10.44-8.25-22.28-8.25-35.51s2.75-24.95,8.25-35.16Zm93.99,11.96c-3.75-6.7-8.65-11.8-14.71-15.31-6.06-3.5-12.6-5.26-19.61-5.26s-13.55,1.72-19.61,5.14c-6.06,3.43-10.97,8.45-14.71,15.06-3.75,6.62-5.62,14.47-5.62,23.56s1.87,17.06,5.62,23.92,8.69,12.08,14.83,15.66c6.14,3.59,12.63,5.38,19.49,5.38s13.55-1.75,19.61-5.26c6.06-3.5,10.96-8.65,14.71-15.43,3.75-6.77,5.62-14.71,5.62-23.8s-1.88-16.98-5.62-23.68Z"/>
        <path d="m628.52,121.26h-100.69c.8,10.52,4.7,18.97,11.72,25.35,7.02,6.38,15.62,9.57,25.83,9.57,14.67,0,25.03-6.14,31.09-18.42h29.42c-3.99,12.12-11.2,22.04-21.65,29.78-10.44,7.74-23.4,11.6-38.87,11.6-12.6,0-23.88-2.83-33.84-8.49-9.97-5.66-17.78-13.63-23.44-23.92-5.66-10.29-8.49-22.2-8.49-35.76s2.75-25.47,8.25-35.76c5.5-10.29,13.23-18.22,23.2-23.8,9.97-5.58,21.41-8.37,34.32-8.37s23.52,2.72,33.24,8.13c9.72,5.42,17.3,13.04,22.72,22.84,5.42,9.8,8.13,21.09,8.13,33.84,0,4.94-.32,9.41-.96,13.39Zm-27.5-22c-.16-10.04-3.75-18.09-10.77-24.15-7.02-6.06-15.7-9.09-26.07-9.09-9.41,0-17.46,2.99-24.16,8.97-6.69,5.98-10.68,14.08-11.96,24.27h72.95Z"/>
      </g>
      <g>
        <path d="m15.95,232.18c5.69-9.71,13.42-17.29,23.19-22.74,9.77-5.46,20.47-8.18,32.09-8.18,13.31,0,25.14,3.27,35.51,9.8,10.37,6.53,17.89,15.8,22.57,27.78h-24.63c-3.24-6.59-7.73-11.51-13.49-14.74-5.75-3.24-12.41-4.85-19.96-4.85-8.27,0-15.64,1.86-22.12,5.57-6.47,3.72-11.54,9.05-15.19,16-3.66,6.95-5.48,15.04-5.48,24.27s1.83,17.32,5.48,24.27c3.65,6.95,8.72,12.32,15.19,16.09,6.47,3.78,13.84,5.66,22.12,5.66,7.55,0,14.2-1.62,19.96-4.85,5.75-3.24,10.25-8.15,13.49-14.74h24.63c-4.67,11.99-12.2,21.22-22.57,27.69-10.37,6.47-22.21,9.71-35.51,9.71-11.75,0-22.48-2.72-32.18-8.18-9.71-5.45-17.41-13.04-23.1-22.74-5.69-9.71-8.54-20.68-8.54-32.9s2.85-23.19,8.54-32.9Z"/>
        <path d="m170.85,323.07c-7.55-4.25-13.49-10.25-17.8-17.98-4.32-7.73-6.47-16.69-6.47-26.88s2.22-19,6.65-26.79c4.43-7.79,10.49-13.78,18.16-17.98,7.67-4.19,16.24-6.29,25.71-6.29s18.04,2.1,25.71,6.29c7.67,4.2,13.72,10.19,18.16,17.98,4.43,7.79,6.65,16.72,6.65,26.79s-2.28,19-6.83,26.79c-4.56,7.79-10.76,13.82-18.61,18.07-7.85,4.26-16.51,6.38-25.98,6.38s-17.8-2.13-25.35-6.38Zm40.19-15.2c4.61-2.52,8.36-6.29,11.24-11.33,2.88-5.04,4.32-11.15,4.32-18.34s-1.38-13.28-4.14-18.25c-2.76-4.97-6.41-8.72-10.97-11.23-4.56-2.52-9.47-3.78-14.74-3.78s-10.16,1.26-14.65,3.78c-4.5,2.52-8.06,6.26-10.7,11.23-2.64,4.98-3.96,11.06-3.96,18.25,0,10.67,2.72,18.91,8.18,24.72,5.45,5.82,12.32,8.72,20.59,8.72,5.27,0,10.22-1.26,14.83-3.78Z"/>
        <path d="m309.47,245.48h-18.34v82.35h-20.68v-82.35h-11.69v-16.72h11.69v-7.01c0-11.39,3.03-19.69,9.08-24.9,6.05-5.21,15.55-7.82,28.5-7.82v17.08c-6.23,0-10.61,1.17-13.12,3.51-2.52,2.34-3.78,6.38-3.78,12.14v7.01h18.34v16.72Z"/>
        <path d="m369.16,245.48h-18.34v82.35h-20.68v-82.35h-11.68v-16.72h11.68v-7.01c0-11.39,3.03-19.69,9.08-24.9,6.05-5.21,15.55-7.82,28.5-7.82v17.08c-6.24,0-10.61,1.17-13.13,3.51s-3.78,6.38-3.78,12.14v7.01h18.34v16.72Z"/>
        <path d="m477.4,285.94h-75.7c.6,7.91,3.53,14.26,8.81,19.06,5.27,4.8,11.75,7.19,19.42,7.19,11.03,0,18.82-4.61,23.37-13.84h22.12c-3,9.11-8.42,16.57-16.27,22.38-7.85,5.82-17.59,8.72-29.22,8.72-9.47,0-17.95-2.13-25.44-6.38-7.49-4.25-13.37-10.25-17.62-17.98-4.26-7.73-6.38-16.69-6.38-26.88s2.07-19.15,6.2-26.88c4.14-7.73,9.95-13.69,17.44-17.89,7.49-4.19,16.09-6.29,25.8-6.29s17.68,2.04,24.99,6.11c7.31,4.08,13,9.8,17.08,17.17,4.08,7.37,6.11,15.85,6.11,25.44,0,3.72-.24,7.07-.72,10.07Zm-20.68-16.54c-.12-7.55-2.82-13.6-8.09-18.16-5.28-4.56-11.81-6.83-19.6-6.83-7.07,0-13.13,2.25-18.16,6.74-5.04,4.5-8.03,10.58-8.99,18.25h54.84Z"/>
        <path d="m588.34,285.94h-75.7c.6,7.91,3.53,14.26,8.81,19.06,5.27,4.8,11.75,7.19,19.42,7.19,11.03,0,18.82-4.61,23.37-13.84h22.12c-3,9.11-8.42,16.57-16.27,22.38-7.85,5.82-17.59,8.72-29.22,8.72-9.47,0-17.95-2.13-25.44-6.38-7.49-4.25-13.37-10.25-17.62-17.98-4.26-7.73-6.38-16.69-6.38-26.88s2.07-19.15,6.2-26.88c4.14-7.73,9.95-13.69,17.44-17.89,7.49-4.19,16.09-6.29,25.8-6.29s17.68,2.04,24.99,6.11c7.31,4.08,13,9.8,17.08,17.17s6.11,15.85,6.11,25.44c0,3.72-.24,7.07-.72,10.07Zm-20.68-16.54c-.12-7.55-2.82-13.6-8.09-18.16-5.28-4.56-11.81-6.83-19.6-6.83-7.07,0-13.13,2.25-18.16,6.74-5.04,4.5-8.03,10.58-8.99,18.25h54.84Z"/>
      </g>
      <g>
        <path class="cls-1" d="m832.01,272.66l.06.06,1.21-1.16c.86-1.49.96-1.93-1.27,1.1Z"/>
        <path class="cls-2" d="m832.39,273.02c.33-.53.64-1.04.89-1.47l-1.21,1.16-.06-.06c2.23-3.03,2.13-2.59,1.27-1.1l77.13-74h-40.78l-78.37,74.33h-.85l.42.41-.41.39.48.52h.88l77.32,74.17c.03.07.07.13.1.16h40.72l.49-.52-78.03-74Z"/>
      </g>
      <path d="m767.99,291.87c-5.97,4.84-12.1,8.81-18.37,11.92-12.7,6.29-27.12,9.43-43.24,9.43-13.39,0-25.28-2.73-35.66-8.2-10.38-5.46-18.51-12.91-24.38-22.34-5.88-9.43-8.81-20.14-8.81-32.17,0-31.96,18.99-54.92,56.97-68.85l38.19,38.71,38.34,38.34,13.33-23.07-76.75-77.75c-10.38-11.2-17.96-20.9-22.74-29.1-4.79-8.19-7.17-16.66-7.17-25.41,0-10.93,3.9-19.88,11.69-26.85,7.78-6.96,17.96-10.45,30.53-10.45,11.74,0,21.51,3.55,29.3,10.65,7.79,7.11,11.54,16.8,11.27,29.1h28.69c.83-18.85-5.19-34.15-18.03-45.9-12.85-11.75-29.51-17.62-50-17.62-21.86,0-39.35,5.67-52.46,17.01-13.12,11.34-19.67,26.17-19.67,44.46,0,10.66,2.18,20.57,6.56,29.72,4.37,9.15,11.33,19.05,20.91,29.71-22.13,8.47-38.94,20.22-50.41,35.24-11.48,15.03-17.21,32.65-17.21,52.87,0,17.21,4.1,32.38,12.3,45.49,8.19,13.11,19.67,23.29,34.42,30.53,14.76,7.24,31.7,10.86,50.82,10.86s37.84-3.62,53.69-10.86c9.2-4.21,18.08-9.82,26.65-16.75l-10.22-10.22-8.51-8.51Z"/>
    </g>
  </g>
</svg>